<svg width="10" height="12" viewBox="0 0 10 12" fill="none" xmlns="http://www.w3.org/2000/svg">
<path fill-rule="evenodd" clip-rule="evenodd" d="M7.13607 5.13607C7.13607 6.24064 6.24064 7.13607 5.13607 7.13607C4.0315 7.13607 3.13607 6.24064 3.13607 5.13607C3.13607 4.0315 4.0315 3.13607 5.13607 3.13607C6.24064 3.13607 7.13607 4.0315 7.13607 5.13607ZM6.13607 5.13607C6.13607 5.68835 5.68836 6.13607 5.13607 6.13607C4.58379 6.13607 4.13607 5.68835 4.13607 5.13607C4.13607 4.58378 4.58379 4.13607 5.13607 4.13607C5.68836 4.13607 6.13607 4.58378 6.13607 5.13607Z" fill="#14191F"/>
<path fill-rule="evenodd" clip-rule="evenodd" d="M1.89708 8.25913C0.0971218 6.54544 0.0271915 3.69705 1.74089 1.89709C3.45459 0.0971292 6.30297 0.0271991 8.10293 1.7409C9.90289 3.4546 9.97282 6.30298 8.25913 8.10294L5.1562 11.3621L1.89708 8.25913ZM7.53488 7.4134L5.12149 9.94827L2.58662 7.53489C1.18665 6.20201 1.13226 3.9866 2.46514 2.58663C3.79801 1.18666 6.01342 1.13227 7.41339 2.46515C8.81336 3.79802 8.86775 6.01343 7.53488 7.4134Z" fill="#14191F"/>
</svg>
